name analog
datacolumns 19
datarows 45
range 0.4585 0.4805
endheader
time	ground_force_vx	ground_force_vy	ground_force_vz	ground_force_px	ground_force_py	ground_force_pz	l_ground_force_vx	l_ground_force_vy	l_ground_force_vz	l_ground_force_px	l_ground_force_py	l_ground_force_pz	ground_torque_x	ground_torque_y	ground_torque_z	l_ground_torque_x	l_ground_torque_y	l_ground_torque_z
0.4585	-0.0	-0.0	-0.0	-0.9813156127929688	36.08576965332031	-325.0687255859375	2.206350326538086	-37.13213348388672	-299.52716064453125	-0.0	-0.0	-0.0	-0.0	-0.0	-0.0	61954.27734375	-15774.8974609375	2534.6298828125
0.459	-0.0	-0.0	-0.0	-0.4839889109134674	35.588645935058594	-325.4330139160156	1.827935576438904	-36.93242645263672	-298.772705078125	-0.0	-0.0	-0.0	-0.0	-0.0	-0.0	62028.0078125	-15945.93359375	2471.210205078125
0.4595	-0.0	-0.0	-0.0	-0.6111917495727539	35.72801971435547	-324.5723876953125	2.002974271774292	-36.9556770324707	-301.0147705078125	-0.0	-0.0	-0.0	-0.0	-0.0	-0.0	62230.640625	-15911.142578125	2568.89501953125
0.46	-0.0	-0.0	-0.0	-0.8787838220596313	35.90660858154297	-324.82586669921875	2.2177696228027344	-37.18343353271485	-300.4718017578125	-0.0	-0.0	-0.0	-0.0	-0.0	-0.0	62101.62109375	-15873.3603515625	2445.69189453125
0.4605	-0.0	-0.0	-0.0	-0.3187190294265747	35.70320129394531	-324.0697937011719	2.5094916820526123	-37.0186767578125	-299.8742370605469	-0.0	-0.0	-0.0	-0.0	-0.0	-0.0	61920.70703125	-15889.82421875	2530.939453125
0.461	-0.0	-0.0	-0.0	-0.2295126914978027	36.26311111450195	-325.5821533203125	2.357664108276367	-36.93035125732422	-300.2703857421875	-0.0	-0.0	-0.0	-0.0	-0.0	-0.0	62274.1171875	-15675.5087890625	2518.306396484375
0.4615	-0.0	-0.0	-0.0	-0.3570156693458557	35.804805755615234	-325.73272705078125	2.1423897743225098	-36.75394821166992	-300.069580078125	-0.0	-0.0	-0.0	-0.0	-0.0	-0.0	62236.3515625	-15819.4072265625	2543.295654296875
0.462	-0.0	-0.0	-0.0	-0.0509342700242996	35.56303405761719	-326.6920471191406	2.306480407714844	-37.28387069702149	-299.87335205078125	-0.0	-0.0	-0.0	-0.0	-0.0	-0.0	62473.49609375	-15702.791015625	2458.7470703125
0.4625	-0.0	-0.0	-0.0	0.0637586340308189	35.99584197998047	-326.3382568359375	2.040348052978516	-36.56517791748047	-299.6243896484375	-0.0	-0.0	-0.0	-0.0	-0.0	-0.0	62245.375	-15742.2509765625	2627.82177734375
0.463	-0.0	-0.0	-0.0	0.0507399328052997	35.75354766845703	-325.3791809082031	2.2686033248901367	-37.06980514526367	-301.01971435546875	-0.0	-0.0	-0.0	-0.0	-0.0	-0.0	62481.171875	-15903.6328125	2585.635009765625
0.4635	-0.0	-0.0	-0.0	0.3577572703361511	35.486114501953125	-324.9775695800781	2.318976402282715	-36.71693801879883	-299.9212646484375	-0.0	-0.0	-0.0	-0.0	-0.0	-0.0	62592.5703125	-15701.4619140625	2598.442138671875
0.464	-0.0	-0.0	-0.0	0.1011042520403862	35.61354064941406	-325.12567138671875	2.306480407714844	-36.96889114379883	-301.6669921875	-0.0	-0.0	-0.0	-0.0	-0.0	-0.0	62664.58203125	-15768.240234375	2628.14208984375
0.4645	-0.0	-0.0	-0.0	0.1278663575649261	35.71603775024414	-325.0314636230469	2.015022993087769	-36.94367980957031	-301.1179504394531	-0.0	-0.0	-0.0	-0.0	-0.0	-0.0	62719.328125	-15576.7666015625	2627.93896484375
0.465	-0.0	-0.0	-0.0	0.1011164709925651	35.62690353393555	-327.2505798339844	2.0656750202178955	-37.00665664672852	-302.01617431640625	-0.0	-0.0	-0.0	-0.0	-0.0	-0.0	62817.68359375	-15640.2578125	2581.309814453125
0.4655	-0.0	-0.0	-0.0	-0.0272377431392669	35.576637268066406	-326.5917053222656	1.8759008646011357	-37.38521194458008	-303.6625366210937	-0.0	-0.0	-0.0	-0.0	-0.0	-0.0	62867.64453125	-15550.7041015625	2458.2919921875
0.466	-0.0	-0.0	-0.0	0.2057271003723144	35.88286590576172	-327.9047546386719	1.7489819526672363	-37.157527923583984	-302.81378173828125	-0.0	-0.0	-0.0	-0.0	-0.0	-0.0	63006.37890625	-15491.25	2572.5771484375
0.4665	-0.0	-0.0	-0.0	-0.6884955167770386	35.71612930297852	-327.3978271484375	1.41937255859375	-37.57478713989258	-304.0628967285156	-0.0	-0.0	-0.0	-0.0	-0.0	-0.0	63256.265625	-15559.3095703125	2415.477783203125
0.467	-0.0	-0.0	-0.0	-0.9839900732040404	36.12289810180664	-329.36248779296875	1.445863962173462	-37.7647819519043	-303.8609313964844	-0.0	-0.0	-0.0	-0.0	-0.0	-0.0	63058.8359375	-15458.20703125	2372.970703125
0.4675	-0.0	-0.0	-0.0	-1.1180905103683472	35.93077087402344	-328.5018310546875	1.255188226699829	-37.34689331054688	-303.8609313964844	-0.0	-0.0	-0.0	-0.0	-0.0	-0.0	62725.34765625	-15743.1103515625	2253.845947265625
0.468	-0.0	-0.0	-0.0	-1.1988919973373413	36.43255615234375	-329.9259948730469	0.9256658554077148	-37.63846206665039	-302.81317138671875	-0.0	-0.0	-0.0	-0.0	-0.0	-0.0	63032.390625	-15487.3408203125	2262.335693359375
0.4685	-0.0	-0.0	-0.0	-1.7591955661773682	36.39019775390625	-331.17059326171875	0.709686279296875	-37.67691421508789	-302.3043518066406	-0.0	-0.0	-0.0	-0.0	-0.0	-0.0	62883.46875	-15682.8125	2364.05810546875
0.46900000000000003	-0.0	-0.0	-0.0	-1.6057891845703125	36.67173385620117	-329.4608459472656	1.2805287837982178	-37.13157272338867	-302.3121337890625	-0.0	-0.0	-0.0	-0.0	-0.0	-0.0	62777.2421875	-15292.05859375	2322.038330078125
0.46950000000000003	-0.0	-0.0	-0.0	-1.8235489130020144	36.711204528808594	-330.2802734375	0.9008634090423584	-37.067718505859375	-302.8669128417969	-0.0	-0.0	-0.0	-0.0	-0.0	-0.0	62633.59375	-15421.6259765625	2301.265380859375
0.47000000000000003	-0.0	-0.0	-0.0	-2.1266109943389893	36.64306640625	-331.8904724121094	1.2945104837417605	-37.38493728637695	-301.7213134765625	-0.0	-0.0	-0.0	-0.0	-0.0	-0.0	62677.2421875	-15274.7529296875	2296.869384765625
0.47050000000000003	-0.0	-0.0	-0.0	-2.4231152534484863	36.83576202392578	-330.8724670410156	0.8871078491210938	-37.15856552124024	-301.7110595703125	-0.0	-0.0	-0.0	-0.0	-0.0	-0.0	62582.0546875	-15273.57421875	2308.729736328125
0.47100000000000003	-0.0	-0.0	-0.0	-2.2551071643829346	36.76121520996094	-331.0860595703125	0.9228660464286804	-36.97885513305664	-300.717529296875	-0.0	-0.0	-0.0	-0.0	-0.0	-0.0	62677.13671875	-15297.4267578125	2293.1015625
0.47150000000000003	-0.0	-0.0	-0.0	-2.309293746948242	36.51864242553711	-329.0072937011719	0.9758186340332032	-37.29653930664063	-301.36065673828125	-0.0	-0.0	-0.0	-0.0	-0.0	-0.0	62304.78515625	-15343.30859375	2262.338134765625
0.47200000000000003	-0.0	-0.0	-0.0	-2.116286516189575	36.469234466552734	-328.0061340332031	0.9261878132820128	-37.23654174804688	-302.0722961425781	-0.0	-0.0	-0.0	-0.0	-0.0	-0.0	62386.40234375	-15071.283203125	2176.7998046875
0.47250000000000003	-0.0	-0.0	-0.0	-2.577298879623413	36.56819915771485	-327.10382080078125	1.039725661277771	-37.36007690429688	-301.62567138671875	-0.0	-0.0	-0.0	-0.0	-0.0	-0.0	62308.41796875	-15297.798828125	2394.037353515625
0.47300000000000003	-0.0	-0.0	-0.0	-2.190563678741455	36.22661209106445	-327.8692932128906	1.305856227874756	-37.10934066772461	-301.1639404296875	-0.0	-0.0	-0.0	-0.0	-0.0	-0.0	62484.45703125	-15525.2646484375	2305.298095703125
0.47350000000000003	-0.0	-0.0	-0.0	-2.3650405406951904	36.14712142944336	-327.239990234375	1.1183305978775024	-37.06035614013672	-299.9613342285156	-0.0	-0.0	-0.0	-0.0	-0.0	-0.0	62272.203125	-15368.208984375	2313.444580078125
0.47400000000000003	-0.0	-0.0	-0.0	-2.230262756347656	35.686222076416016	-326.728759765625	0.9859513640403748	-36.72731018066406	-299.8638610839844	-0.0	-0.0	-0.0	-0.0	-0.0	-0.0	62044.8203125	-15365.9765625	2432.086669921875
0.47450000000000003	-0.0	-0.0	-0.0	-2.1599369049072266	36.38984680175781	-326.3382568359375	1.522652506828308	-36.61438751220703	-298.5819702148437	-0.0	-0.0	-0.0	-0.0	-0.0	-0.0	61810.3828125	-15213.6376953125	2486.954345703125
0.47500000000000003	-0.0	-0.0	-0.0	-2.3595211505889893	35.67037582397461	-326.8861083984375	1.7101373672485352	-36.49160385131836	-298.8934326171875	-0.0	-0.0	-0.0	-0.0	-0.0	-0.0	62030.91796875	-15355.0634765625	2384.82763671875
0.47550000000000003	-0.0	-0.0	-0.0	-2.1565582752227783	35.830421447753906	-326.7273254394531	1.710124373435974	-36.550392150878906	-298.7969055175781	-0.0	-0.0	-0.0	-0.0	-0.0	-0.0	62114.92578125	-15060.9267578125	2373.2880859375
0.47600000000000003	-0.0	-0.0	-0.0	-2.359711170196533	35.75703048706055	-327.9103088378906	1.7742156982421875	-36.51631546020508	-298.2126770019531	-0.0	-0.0	-0.0	-0.0	-0.0	-0.0	61723.9765625	-15199.7060546875	2378.36328125
0.47650000000000003	-0.0	-0.0	-0.0	-2.2460134029388428	35.7972297668457	-325.65966796875	1.7496753931045532	-36.43360900878906	-298.0045166015625	-0.0	-0.0	-0.0	-0.0	-0.0	-0.0	61700.98828125	-15100.865234375	2486.9296875
0.47700000000000004	-0.0	-0.0	-0.0	-2.448915958404541	35.87062072753906	-326.365966796875	1.7496728897094729	-36.211891174316406	-296.3331298828125	-0.0	-0.0	-0.0	-0.0	-0.0	-0.0	61514.78515625	-15227.52734375	2432.70458984375
0.47750000000000004	-0.0	-0.0	-0.0	-2.513882875442505	35.52267074584961	-326.0483703613281	1.532544732093811	-36.004730224609375	-296.42974853515625	-0.0	-0.0	-0.0	-0.0	-0.0	-0.0	61455.51953125	-14932.6611328125	2448.93505859375
0.47800000000000004	-0.0	-0.0	-0.0	-2.0929718017578125	35.44952774047852	-325.8885192871094	1.5325322151184082	-35.64232635498047	-296.83935546875	-0.0	-0.0	-0.0	-0.0	-0.0	-0.0	61362.98046875	-15139.1552734375	2416.312744140625
0.47850000000000004	-0.0	-0.0	-0.0	-2.571084499359131	35.239253997802734	-325.9216613769531	1.6456964015960691	-35.602691650390625	-294.8764343261719	-0.0	-0.0	-0.0	-0.0	-0.0	-0.0	61083.890625	-14868.6396484375	2489.0419921875
0.47900000000000004	-0.0	-0.0	-0.0	-2.51416015625	34.90678405761719	-326.24200439453125	1.8629264831542969	-35.52958297729492	-294.3348388671875	-0.0	-0.0	-0.0	-0.0	-0.0	-0.0	61127.28515625	-15121.521484375	2548.624755859375
0.47950000000000004	-0.0	-0.0	-0.0	-2.3843815326690674	35.076812744140625	-326.40283203125	1.9272799491882324	-35.21610641479492	-294.1773986816406	-0.0	-0.0	-0.0	-0.0	-0.0	-0.0	61098.19921875	-14843.115234375	2492.349853515625
0.48	-0.0	-0.0	-0.0	-2.505565643310547	35.174644470214844	-325.2084655761719	2.073016881942749	-35.34449005126953	-294.2723083496094	-0.0	-0.0	-0.0	-0.0	-0.0	-0.0	60811.23046875	-14993.5771484375	2503.01611328125
0.4805	-0.0	-0.0	-0.0	-2.2060389518737797	34.74433517456055	-325.7933044433594	2.153337955474853	-35.11949157714844	-291.6371765136719	-0.0	-0.0	-0.0	-0.0	-0.0	-0.0	60832.36328125	-15084.716796875	2462.844970703125
